// src/assets/camera-icon.svg
<svg xmlns="http://www.w3.org/2000/svg" width="14" height="14" viewBox="0 0 14 14" fill="none">
  <path d="M7 9.1C8.13999 9.1 9.05996 8.18003 9.05996 7.04004C9.05996 5.90005 8.13999 4.98008 7 4.98008C5.86001 4.98008 4.94004 5.90005 4.94004 7.04004C4.94004 8.18003 5.86001 9.1 7 9.1Z" fill="white"/>
  <path d="M5.25 1.89996L4.25 3.01996H2.54004C1.85999 3.01996 1.31 3.56996 1.31 4.24994V10.64C1.31 11.32 1.85999 11.87 2.54004 11.87H11.46C12.14 11.87 12.69 11.32 12.69 10.64V4.24994C12.69 3.56996 12.14 3.01996 11.46 3.01996H9.75L8.75 1.89996H5.25ZM7 10.22C5.23999 10.22 3.82001 8.80005 3.82001 7.03998C3.82001 5.27991 5.23999 3.85999 7 3.85999C8.76001 3.85999 10.18 5.27991 10.18 7.03998C10.18 8.80005 8.76001 10.22 7 10.22Z" fill="white"/>
</svg>